<svg xmlns="http://www.w3.org/2000/svg" width="85" height="85" viewBox="0 0 85 85">
  <path id="headphones-solid" d="M47.5,5A42.563,42.563,0,0,0,5,47.5V78.409A11.653,11.653,0,0,0,16.591,90H28.182V55.227H12.727V47.5a34.773,34.773,0,1,1,69.545,0v7.727H66.818V90H78.409A11.653,11.653,0,0,0,90,78.409V47.5A42.563,42.563,0,0,0,47.5,5ZM12.727,62.955h7.727V82.273H16.591a3.8,3.8,0,0,1-3.864-3.864Zm61.818,0h7.727V78.409a3.8,3.8,0,0,1-3.864,3.864H74.545Z" transform="translate(-5 -5)" fill="#014377"/>
</svg>
